<svg width="158" height="80" viewBox="0 0 158 80" fill="none" xmlns="http://www.w3.org/2000/svg">
<path d="M139.041 32.147C139.041 30.9859 139.122 30.3165 139.479 29.9477C139.719 29.7072 140.396 29.3855 141.871 29.3855C144.539 29.3855 146.613 29.9477 148.286 31.6266C150.11 33.3447 151.153 36.6658 151.153 40.4655C151.153 48.0257 148.044 51.7835 142.666 51.7835C139.755 51.7835 139.039 50.8238 139.039 47.9838L139.041 32.147ZM130.114 27.6674V29.1475C133.064 29.3855 133.501 29.7072 133.501 33.0701V48.2689C133.501 51.59 133.144 51.9483 130.114 52.1915V53.6716H141.074C145.618 53.6716 149.412 52.5523 152.351 50.3112C155.421 47.9917 157.333 44.4718 157.333 39.8745C157.333 35.8343 155.77 33.0335 153.745 31.1533C151.197 28.7553 147.45 27.6753 142.348 27.6753L130.114 27.6674ZM119.827 27.6674H109.985V29.1475C113.291 29.3463 113.93 30.1936 114.05 31.9064C114.17 33.3866 114.209 34.7072 114.209 38.1826V45.3845L99.0252 27.6674H91.2549V29.1475C92.9278 29.3071 93.8841 29.4273 94.6007 30.4263C95.3589 31.4723 95.4397 32.3458 95.4397 33.6664V43.146C95.4397 46.624 95.3589 48.0649 95.2 49.5058C94.9603 51.3834 93.9649 51.9849 91.6927 52.1836V53.6637H101.576V52.1836C98.6265 52.0241 97.7901 51.1036 97.6311 49.3437C97.5112 48.1852 97.4305 46.624 97.4305 43.146V34.1057L114.047 54.1031H116.278V38.1852C116.278 34.7072 116.397 33.3447 116.517 31.7861C116.637 29.987 117.396 29.4666 119.824 29.1475L119.827 27.6674ZM81.447 34.4666C81.249 31.8672 81.09 28.3473 81.0483 26.6685H79.894C79.2165 27.4268 78.6589 27.6674 77.5827 27.6674H61.6409C60.4449 27.6674 59.968 27.5863 59.3713 26.6685H58.1753C58.0945 28.5879 57.8157 31.7077 57.5369 34.6261H59.0508C59.572 33.0257 60.127 31.5874 60.6846 30.8264C61.4429 29.8667 62.0787 29.5189 64.3118 29.5189H66.7429V48.3186C66.7429 51.6763 66.3833 51.9169 62.9959 52.1967V53.6768H76.2277V52.1836C72.6813 51.9038 72.2827 51.6606 72.2827 48.3055V29.5058H74.8311C77.1762 29.5058 77.5019 29.8275 78.2185 30.6669C79.0154 31.8631 79.5958 33.1909 79.9331 34.5895L81.447 34.4666ZM48.9641 53.6637V52.1836C46.215 51.9038 45.3786 51.5037 43.7839 48.9043C41.4388 45.3452 39.5991 42.2647 37.2905 38.5853C39.2421 35.8264 40.7951 33.5879 42.1501 31.7861C43.664 29.8667 44.8601 29.4666 47.4528 29.1475V27.6674H37.8116V29.1475C40.2818 29.5869 40.6023 29.987 39.8441 31.386C38.8878 33.0649 37.4129 35.4263 36.2169 37.0659C34.5831 34.4273 33.3089 32.2673 32.6705 31.0278C32.1129 29.8667 32.2328 29.4273 34.6248 29.1475V27.6674H22.1851V29.1475C25.1739 29.4666 26.0494 30.1936 27.136 31.9875C29.1684 35.2668 30.8439 38.0649 32.7174 41.2265C30.4452 44.6653 27.8942 48.1852 26.4637 49.9451C25.3068 51.3442 23.871 51.9849 21.6405 52.1836V53.6637H31.5501V52.1836C28.7619 51.7835 28.5613 51.3442 29.4785 49.7045C30.1951 48.3055 31.9487 45.7035 33.7832 42.8662C36.6495 47.8348 37.4885 49.2234 37.8872 49.9033C38.5647 51.1847 38.6845 51.8227 35.9746 52.1836V53.6637H48.9641Z" fill="#3D85C6"/>
<path d="M84.1726 62.2123V75.5544H4.42972V4.44561H84.1726V17.785H88.5997V0H86.3874H0V80H88.5997V62.2123H84.1726Z" fill="#3D85C6"/>
</svg>
